<?xml version="1.0" standalone="no"?><!DOCTYPE svg PUBLIC "-//W3C//DTD SVG 1.1//EN" "http://www.w3.org/Graphics/SVG/1.1/DTD/svg11.dtd"><svg class="icon" width="32px" height="32.00px" viewBox="0 0 1024 1024" version="1.1" xmlns="http://www.w3.org/2000/svg"><path fill="#00FFFF" d="M768.0288 739.52a334.4 334.4 0 0 1-256 140.48c-100.16 0-192-60.16-254.08-138.24a38.4 38.4 0 0 1 6.72-51.2 37.76 37.76 0 0 1 22.4-6.72 35.84 35.84 0 0 1 29.12 13.44 251.52 251.52 0 0 0 198.4 96 247.04 247.04 0 0 0 198.4-97.92 35.84 35.84 0 0 1 29.12-13.44 42.88 42.88 0 0 1 22.4 6.72 40.32 40.32 0 0 1 4.48 51.2m-411.84-294.4a53.44 53.44 0 1 1-53.44 53.44 54.08 54.08 0 0 1 53.44-53.44m307.52 0a53.44 53.44 0 1 1-53.44 53.44 52.8 52.8 0 0 1 53.44-53.44m334.4-20.16l-128-115.84V140.16a66.56 66.56 0 0 0-64-66.88 64 64 0 0 0-64 66.88v55.68l-171.84-151.68a87.36 87.36 0 0 0-122.56 0L24.9888 414.08a82.24 82.24 0 0 0 0 118.08L140.8288 579.2v340.8a84.8 84.8 0 0 0 84.8 84.8h566.08a84.8 84.8 0 0 0 84.8-84.8V592.64l122.56-46.72a84.8 84.8 0 0 0 0-120.32"  /></svg>