<?xml version="1.0" standalone="no"?><!DOCTYPE svg PUBLIC "-//W3C//DTD SVG 1.1//EN" "http://www.w3.org/Graphics/SVG/1.1/DTD/svg11.dtd"><svg class="icon" width="32px" height="32.00px" viewBox="0 0 1024 1024" version="1.1" xmlns="http://www.w3.org/2000/svg"><path d="M490.6496 0h39.424c82.944 2.4576 166.912 4.5568 247.8592 24.9344 40.6528 10.24 80.4864 25.7024 115.456 49.2032 48.8448 34.1504 81.408 87.6032 98.0992 144.1792 23.4496 74.9568 27.904 153.9584 31.0272 231.936 0.8704 101.7344 1.792 204.3904-17.92 304.64-9.9328 42.5472-21.6064 85.6064-44.5952 123.136-30.8224 50.0224-79.9744 86.9888-134.8096 107.1616-93.2864 33.1776-193.7408 36.2496-291.6864 38.8096h-46.5408c-101.12-3.328-205.312-5.4784-300.7488-43.1616-63.488-25.1904-115.3536-76.6464-141.4144-139.776C6.912 751.1552 3.6864 651.7248 0 555.6224V463.2064c2.9184-80.384 7.2192-161.6384 29.952-239.3088C49.5104 147.8144 103.0656 79.616 175.9744 48.5376 274.5856 4.7616 384.8192 3.7888 490.6496 0M347.136 270.2848C303.9232 310.5792 283.904 368.8448 270.7968 424.96c-4.0448 16.64-9.5232 36.9152-27.1872 43.7248-17.0496 5.3248-28.7744 20.7872-32.7168 37.7344-11.6736 45.312-8.9088 92.6208-9.3184 138.9568 0.7168 26.7776 5.2736 59.5456 30.976 73.984 6.4 3.84 14.08 8.7552 12.3904 17.5104-1.7408 17.664 5.4272 39.68 25.7024 41.9328 31.9488 1.8432 66.304 5.8368 96.5632-6.8096 17.152-6.912 5.8368-38.144 27.1872-37.9392 78.2848-0.1536 156.672-0.256 234.9568 0.0512 17.8688 1.3824 8.8576 25.6512 19.8656 34.816 12.8 15.5648 34.5088 9.216 51.968 11.008 21.4016-0.6656 45.6192 3.4304 64.4608-9.0112 14.5408-10.1376 11.8272-29.2352 12.1856-44.5952 11.6736-8.3968 23.9616-17.3056 29.44-31.232 17.4592-39.5776 15.1552-84.0192 13.7216-126.2592-3.2256-28.416-5.1712-58.7776-20.9408-83.5584-7.5776-13.7728-26.7776-13.3632-34.8672-26.6752-11.1104-15.7184-12.0832-35.5328-15.8208-53.76-12.7488-64.6144-52.224-124.8768-110.1312-157.3376-81.6128-1.536-163.328-0.1024-244.992-0.7168-18.5344-0.8704-33.4848 12.6976-47.104 23.5008z" fill="#1A68C8" /><path d="M406.9376 356.0448c55.0912-3.7376 111.1552-0.3072 166.656-1.6384 15.3088 0.3072 36.4544-1.0752 44.6976 14.7968 14.7968 25.2928 18.432 54.9888 22.784 83.4048-89.9072 0.0512-179.8144-0.1024-269.7216 0.1024 6.912-33.0752 8.9088-72.704 35.584-96.6656zM329.3696 565.504c23.9104-9.8304 52.0192 12.4416 47.5136 37.888-2.2528 25.9072-36.4544 40.3456-56.4224 23.5008-21.76-15.2064-16.2816-52.992 8.9088-61.3888zM666.9824 565.4528c23.9104-9.728 52.1728 13.2096 47.0528 38.6048-2.7648 26.8288-39.7312 40.2944-58.7264 20.736-19.6096-16.4352-12.3904-51.456 11.6736-59.3408z" fill="#1A68C8" /><path d="M347.136 270.2848c13.6192-10.8032 28.5696-24.3712 47.104-23.5008 81.664 0.6144 163.3792-0.8192 244.992 0.7168 57.9072 32.4608 97.3824 92.7232 110.1312 157.3376 3.7376 18.2272 4.7104 38.0416 15.8208 53.76 8.0896 13.312 27.2896 12.9024 34.8672 26.6752 15.7696 24.7808 17.7152 55.1424 20.9408 83.5584 1.4336 42.24 3.7376 86.6816-13.7216 126.2592-5.4784 13.9264-17.7664 22.8352-29.44 31.232-0.3584 15.36 2.3552 34.4576-12.1856 44.5952-18.8416 12.4416-43.0592 8.3456-64.4608 9.0112-17.4592-1.792-39.168 4.5568-51.968-11.008-11.008-9.1648-1.9968-33.4336-19.8656-34.816-78.2848-0.3072-156.672-0.2048-234.9568-0.0512-21.3504-0.2048-10.0352 31.0272-27.1872 37.9392-30.2592 12.6464-64.6144 8.6528-96.5632 6.8096-20.2752-2.2528-27.4432-24.2688-25.7024-41.9328 1.6896-8.7552-5.9904-13.6704-12.3904-17.5104-25.7024-14.4384-30.2592-47.2064-30.976-73.984 0.4096-46.336-2.3552-93.6448 9.3184-138.9568 3.9424-16.9472 15.6672-32.4096 32.7168-37.7344 17.664-6.8096 23.1424-27.0848 27.1872-43.7248 13.1072-56.1152 33.1264-114.3808 76.3392-154.6752m59.8016 85.76c-26.6752 23.9616-28.672 63.5904-35.584 96.6656 89.9072-0.2048 179.8144-0.0512 269.7216-0.1024-4.352-28.416-7.9872-58.112-22.784-83.4048-8.2432-15.872-29.3888-14.4896-44.6976-14.7968-55.5008 1.3312-111.5648-2.0992-166.656 1.6384m-77.568 209.4592c-25.1904 8.3968-30.6688 46.1824-8.9088 61.3888 19.968 16.8448 54.1696 2.4064 56.4224-23.5008 4.5056-25.4464-23.6032-47.7184-47.5136-37.888m337.6128-0.0512c-24.064 7.8848-31.2832 42.9056-11.6736 59.3408 18.9952 19.5584 55.9616 6.0928 58.7264-20.736 5.12-25.3952-23.1424-48.3328-47.0528-38.6048z" fill="#FFFFFF" /></svg>