<?xml version="1.0" standalone="no"?><!DOCTYPE svg PUBLIC "-//W3C//DTD SVG 1.1//EN" "http://www.w3.org/Graphics/SVG/1.1/DTD/svg11.dtd"><svg class="icon" width="32px" height="32.00px" viewBox="0 0 1024 1024" version="1.1" xmlns="http://www.w3.org/2000/svg"><path fill="#00FFFF" d="M262.369 241.557c50.174 0 100.446 0 150.62 0.098 4.518 0 8.129-1.205 11.741-3.915 30.207-22.877 60.512-45.553 90.915-68.131 2.308-1.711 5.621-2.709 8.433-2.709 38.934-0.202 77.77-0.103 116.704-0.103 8.829 0 10.235-1.407 10.235-10.237 0-24.082-0.103-48.267 0.098-72.35 0.103-10.638 8.232-19.169 18.668-19.967 11.137-0.804 20.569 6.321 22.475 16.958 0.401 2.205 0.299 4.616 0.299 6.821v69.944c0 7.325 1.509 8.831 9.035 8.831h214.141c9.536 0 16.458 3.713 20.471 12.444 6.022 12.843-3.312 28.297-17.462 29.101-1.804 0.098-3.611 0-5.42 0h-211.23c-8.428 0-9.536 1.103-9.536 9.632v239.228c0 8.33 0.403 8.829 8.531 10.138 46.362 7.624 86.501 46.259 95.933 92.318 2.009 9.735 2.107 9.834 12.245 9.834 35.926 0 71.847-0.099 107.771 0.103 16.057 0.098 25.69 17.256 17.561 31.108-4.11 7.022-10.534 10.438-18.864 10.335-36.929-0.098-73.855 0-110.784 0-8.33 0-8.33 0.201-11.04 8.025-15.351 45.961-46.758 73.86-94.223 83.591-6.326 1.308-7.228 2.209-7.228 8.732v192.469c0 10.736-4.517 18.164-13.146 21.574-13.749 5.42-28.199-4.116-28.297-19.065-0.201-30.207-0.103-60.409-0.103-90.617V709.88c0-7.927-0.499-8.427-7.727-10.935-39.738-13.749-66.128-40.645-78.97-80.681-2.21-6.923-2.709-7.324-10.035-7.324h-258c-8.123 0-9.431 1.303-9.431 9.329v283.586c0 11.04-4.915 18.663-13.945 21.976-12.848 4.615-26.896-4.817-27.395-18.463-0.103-2.112-0.103-4.317-0.103-6.424V621.273c0-9.232-1.205-10.436-10.535-10.436H106.326c-12.039 0-20.971-8.531-21.27-19.869-0.304-12.24 8.325-21.476 20.667-21.476 33.016-0.099 65.932-0.099 98.947-0.099 10.839 0 21.673 0.099 32.51 0 6.321 0 8.232-1.905 8.232-8.329V291.33c0-6.624-1.912-8.232-9.237-8.232H110.642c-13.95 0-23.278-11.338-20.77-24.886 1.803-9.632 10.333-16.453 20.97-16.453h109.781c13.847-0.202 27.797-0.202 41.746-0.202z m24.485 184.336V560.26c0 7.125 1.607 9.03 7.825 9.03h257.897c6.321 0 7.624-1.401 8.932-7.423 9.73-46.16 36.924-77.166 81.381-92.925 7.624-2.709 8.025-3.008 8.025-11.136V218.072c0-8.829-1.2-10.035-10.333-10.035-33.515 0-66.932 0.103-100.451-0.098-4.513 0-8.129 1.103-11.741 3.812a14147.192 14147.192 0 0 1-91.416 68.24c-2.307 1.705-5.62 2.709-8.427 2.709-43.956 0.196-87.907 0.098-131.961 0.098-8.629 0-9.834 1.205-9.834 10.035 0.103 44.456 0.103 88.707 0.103 133.06z m392.563 237.224c43.848-0.098 79.073-35.323 78.97-79.176-0.098-43.348-35.622-78.872-79.073-78.769-43.75 0.098-79.378 35.823-79.073 79.274 0.299 43.451 35.822 78.774 79.176 78.671z m0 0" /></svg>