<?xml version="1.0" standalone="no"?><!DOCTYPE svg PUBLIC "-//W3C//DTD SVG 1.1//EN" "http://www.w3.org/Graphics/SVG/1.1/DTD/svg11.dtd"><svg class="icon" width="32px" height="32.00px" viewBox="0 0 1024 1024" version="1.1" xmlns="http://www.w3.org/2000/svg"><path fill="#00FFFF" d="M509.496481 530.780739 219.202932 849.742211c77.895091 67.420529 173.060521 103.300714 269.198092 108.197234 5.92699-20.866237 16.564257-65.262376 16.359596-113.1265-0.271176-64.677045-0.36839-161.119561 74.559113-250.477728L509.496481 530.780739z"  /><path fill="#00FFFF" d="M419.618475 449.0329c-81.860403 82.997296-177.933505 91.939969-242.254439 97.844445-45.750997 4.13518-87.308485 17.877159-108.60758 25.882484 13.227256 95.363951 57.017598 187.039907 130.537032 258.738879l290.213731-318.909284L419.618475 449.0329z"  /><path fill="#00FFFF" d="M507.642251 492.660536l293.055452-322.06209C721.760886 103.624079 625.698017 68.680219 528.854365 64.980967c-5.924943 20.686135-16.714683 65.326844-16.507976 113.657596 0.214894 64.634066 0.313132 161.092955-74.516134 250.498194L507.642251 492.660536z"  /><path fill="#00FFFF" d="M597.486488 574.373583c81.904405-82.963527 177.946808-91.962481 242.298442-97.8117 50.376341-4.560876 95.695502-20.778232 114.285906-28.124548-13.651928-96.003518-58.415434-188.031491-133.319401-259.751952L527.597745 510.850827 597.486488 574.373583z"  /><path fill="#00FFFF" d="M531.78102 844.684008c0.204661 46.780443-8.981559 89.487104-15.46011 113.733321 115.076922-1.277086 229.383294-46.574758 315.189565-134.642536L599.231225 612.455923C531.43412 694.028776 531.56408 780.719184 531.78102 844.684008z"  /><path fill="#00FFFF" d="M399.716192 430.875355 170.614307 222.460628c-78.67485 92.709495-113.094778 209.080899-104.643292 322.532811 24.062022-8.695033 64.190975-20.974707 108.912525-25.036209C238.650867 514.192945 324.942185 506.148735 399.716192 430.875355z"  /><path fill="#00FFFF" d="M957.059913 476.263078c-22.977317 8.695033-66.202795 22.783913-114.792443 27.193339-63.811328 5.822612-150.026922 13.862729-224.867444 89.085968l232.31916 211.383338C930.875554 710.192921 966.139709 591.655178 957.059913 476.263078z"  /><path fill="#00FFFF" d="M485.347478 178.729637c-0.141216-46.856168 9.033747-89.617064 15.523555-113.896026C386.476657 67.6344 273.362436 113.896026 188.641893 202.433502l229.210355 208.55185C485.757824 329.482083 485.617631 242.789629 485.347478 178.729637z"  /></svg>