<?xml version="1.0" standalone="no"?><!DOCTYPE svg PUBLIC "-//W3C//DTD SVG 1.1//EN" "http://www.w3.org/Graphics/SVG/1.1/DTD/svg11.dtd"><svg class="icon" width="32px" height="32.00px" viewBox="0 0 1024 1024" version="1.1" xmlns="http://www.w3.org/2000/svg"><path d="M512 1020.8a64 64 0 0 1-46.72-19.2l-37.76-37.76a483.84 483.84 0 1 1 568.32-476.16 480.64 480.64 0 0 1-399.36 476.16l-37.76 37.76a64 64 0 0 1-46.72 19.2z" fill="#FFFFFF" /><path d="M512 67.2a419.84 419.84 0 0 0-64 832h10.24l52.48 52.48 55.04-52.48H576a419.84 419.84 0 0 0-64-832z" fill="#1761A3" /><path d="M231.68 480a16 16 0 0 1 9.6-7.04 43.52 43.52 0 0 1 17.28 0 12.8 12.8 0 0 1 12.16 7.68 167.68 167.68 0 0 1 8.32 23.04 36.48 36.48 0 0 1 0 26.24 44.8 44.8 0 0 1-9.6 12.16 64 64 0 0 0-9.6 12.16 64 64 0 0 1-7.04 11.52 58.24 58.24 0 0 1-16.64 10.24c-9.6 5.76-16 7.68-19.2 6.4a17.28 17.28 0 0 1-10.88-15.36 28.8 28.8 0 0 0 0-9.6 64 64 0 0 1 0-17.28 49.92 49.92 0 0 1 4.48-16c0-4.48 0-10.24 5.12-17.92a39.04 39.04 0 0 1 12.16-17.28 64 64 0 0 0 3.84-8.96z m81.92-53.76a304 304 0 0 1 0-44.16 51.84 51.84 0 0 1 14.08-24.32 24.32 24.32 0 0 1 14.08-7.04 33.28 33.28 0 0 1 21.12 13.44 43.52 43.52 0 0 1 14.08 19.84 26.24 26.24 0 0 0 7.04 11.52 10.88 10.88 0 0 1 0 9.6 19.84 19.84 0 0 1-9.6 9.6 23.04 23.04 0 0 0-11.52 9.6 89.6 89.6 0 0 0 0 14.08v84.48a744.32 744.32 0 0 0 4.48 85.12 68.48 68.48 0 0 1-3.2 30.72 14.72 14.72 0 0 1-12.8 10.24 17.92 17.92 0 0 1-11.52 0A67.2 67.2 0 0 1 320 633.6a128 128 0 0 1-16-17.92l-9.6-17.92c-4.48-8.32-5.12-13.44 0-16s8.32 0 14.08 8.32a92.16 92.16 0 0 0 21.76 15.36h6.4c1.28 0 0 0 0-8.32A1052.16 1052.16 0 0 1 320 489.6q-5.76-35.84-6.4-63.36z m98.56 73.6a23.04 23.04 0 0 1 15.36 12.16 43.52 43.52 0 0 0 4.48 10.88 19.2 19.2 0 0 0 5.76 7.68l4.48 4.48a44.8 44.8 0 0 0 5.76 10.88l12.8 12.8 9.6 7.68 17.28 9.6a34.56 34.56 0 0 0 14.08 3.84A26.88 26.88 0 0 0 512 576c4.48-4.48 8.32-5.12 10.88 0s0 5.12 0 11.52a30.72 30.72 0 0 1-20.48 14.72h-17.28a72.32 72.32 0 0 1-23.04-7.04L448 580.48l-12.16-8.32-10.88-7.68-14.08-11.52-14.72-12.16a28.8 28.8 0 0 1-12.16-19.2 27.52 27.52 0 0 1 11.52-19.2 15.36 15.36 0 0 1 16.64-2.56zM763.52 477.44a832 832 0 0 1-92.16 12.16H595.2a42.88 42.88 0 0 1 0 5.12v9.6a77.44 77.44 0 0 1 0 9.6 17.92 17.92 0 0 1-10.88 16.64 33.92 33.92 0 0 1-12.16 0h-11.52a18.56 18.56 0 0 1-12.16-7.04 35.2 35.2 0 0 1-8.96-17.28 12.8 12.8 0 0 0 0-6.4v-7.68a33.92 33.92 0 0 0-6.4-14.08 19.84 19.84 0 0 1-3.84-11.52v-7.68A24.96 24.96 0 0 1 529.92 448a21.12 21.12 0 0 1 14.08-4.48h8.96a51.2 51.2 0 0 1 33.28 0l13.44 4.48a19.84 19.84 0 0 1-6.4-5.12l-4.48-4.48a51.84 51.84 0 0 1-12.8-14.08l-8.32-12.8v-3.84a33.92 33.92 0 0 1 0-16c0-4.48 3.84-7.04 11.52-8.96h14.08a11.52 11.52 0 0 0 8.32 0 15.36 15.36 0 0 1 12.16 8.96 17.28 17.28 0 0 1 0 5.76 44.8 44.8 0 0 0 0 6.4v9.6a80.64 80.64 0 0 0 0 14.72q7.68 16 0 21.76L633.6 448h68.48a44.8 44.8 0 0 1 6.4-14.08l4.48-10.24 3.84-7.04 3.2-7.04a54.4 54.4 0 0 1 5.76-9.6l7.68-13.44a91.52 91.52 0 0 1 9.6-14.72l5.12-6.4a69.76 69.76 0 0 1 11.52-14.72 48.64 48.64 0 0 1 12.16-6.4 18.56 18.56 0 0 1 8.32 0s5.76 3.2 8.32 8.32a12.16 12.16 0 0 1 0 10.88 12.8 12.8 0 0 1-6.4 6.4 14.08 14.08 0 0 0-6.4 3.2L768 384a19.2 19.2 0 0 0-5.76 5.12l-4.48 4.48-5.76 6.4-8.32 9.6-6.4 8.96-5.12 8.32-4.48 6.4-3.84 5.76-10.24 15.36a576 576 0 0 0 71.68-8.96 50.56 50.56 0 0 1 24.96 4.48c4.48 0 7.04 8.96 7.04 19.2a38.4 38.4 0 0 1-12.16 25.6l-26.24 17.28c-6.4 5.76-11.52 7.68-14.08 4.48a8.96 8.96 0 0 1 0-10.24 156.8 156.8 0 0 1 9.6-24.96 8.96 8.96 0 0 0 0-4.48 21.76 21.76 0 0 0-10.88 0.64zM634.24 576a86.4 86.4 0 0 0 30.72 7.04h21.76v-4.48a28.8 28.8 0 0 1-5.12-12.16 24.32 24.32 0 0 1 5.76-11.52l13.44-19.84a17.92 17.92 0 0 0 0-5.76h-6.4a120.32 120.32 0 0 1-21.76 9.6 44.16 44.16 0 0 1-16.64 0h-19.2a34.56 34.56 0 0 1-24.96-12.8 25.6 25.6 0 0 1-6.4-14.08 18.56 18.56 0 0 1 4.48-10.88 23.68 23.68 0 0 1 14.72-5.76 94.72 94.72 0 0 1 22.4 0 122.24 122.24 0 0 0 47.36 0l19.84-4.48a30.08 30.08 0 0 1 17.28 0 16.64 16.64 0 0 1 8.96 9.6 55.68 55.68 0 0 1 0 15.36 153.6 153.6 0 0 1-24.32 40.32 21.12 21.12 0 0 0-5.76 14.72v7.04h13.44a39.68 39.68 0 0 0 13.44 0h10.88a16.64 16.64 0 0 0 8.32 0h15.36q12.16 0 14.08 3.2c0 3.84 0 7.04-8.32 10.24a108.8 108.8 0 0 1-21.76 7.68 40.96 40.96 0 0 1-13.44 0 36.48 36.48 0 0 0-12.16 0h-12.16v12.16a64 64 0 0 1-5.76 25.6 64 64 0 0 1-12.16 16.64 21.76 21.76 0 0 1-14.72 7.04 32 32 0 0 1-21.12-15.36 53.76 53.76 0 0 1-8.32-26.88c0-8.96 0-13.44 4.48-14.08s5.76 0 8.32 8.96 8.96 18.56 15.36 20.48 0 0 3.2-3.2v-8.32a128 128 0 0 0 0-16.64 28.16 28.16 0 0 0 0-4.48h-40.32a22.4 22.4 0 0 1-12.16 0 64 64 0 0 0-17.28 0 79.36 79.36 0 0 1-29.44-5.76c-6.4 0-10.24-5.12-10.24-7.68a24.96 24.96 0 0 1 0-9.6 22.4 22.4 0 0 1 11.52-12.16A69.12 69.12 0 0 1 620.8 576a30.08 30.08 0 0 1 13.44 0z m12.8-192a12.8 12.8 0 0 1 0-5.12 25.6 25.6 0 0 1 7.04-10.88 10.24 10.24 0 0 1 10.88 0l16.64 8.32a24.32 24.32 0 0 1 13.44 14.08v11.52a40.32 40.32 0 0 1 0 14.72c0 6.4-3.2 10.24-5.76 11.52a12.8 12.8 0 0 1-12.16 0l-5.76-3.84a32.64 32.64 0 0 1-8.96-6.4l-3.2-6.4-3.84-7.04a24.32 24.32 0 0 1 0-8.96L647.04 384z" fill="#F7F8F8" /></svg>