<?xml version="1.0" standalone="no"?><!DOCTYPE svg PUBLIC "-//W3C//DTD SVG 1.1//EN" "http://www.w3.org/Graphics/SVG/1.1/DTD/svg11.dtd"><svg class="icon" width="32px" height="32.00px" viewBox="0 0 1024 1024" version="1.1" xmlns="http://www.w3.org/2000/svg"><path d="M85.316663 0h853.366674c47.109201 0 85.316663 38.207462 85.316663 85.316663v853.366674c0 47.109201-38.207462 85.316663-85.316663 85.316663H85.316663c-47.109201 0-85.316663-38.207462-85.316663-85.316663V85.316663C0 38.207462 38.207462 0 85.316663 0z" fill="#28C1E4" /><path d="M380.77437 782.052745c-2.800547-3.900762-5.601094-7.501465-8.301621-10.702091l17.503418-8.50166c4.500879 6.001172 8.60168 12.402422 12.802501 19.203751h31.006056c4.100801-6.40125 7.701504-13.00254 11.102168-19.703849l19.203751 7.001368c-2.600508 4.700918-5.301035 9.001758-7.901544 12.8025h40.607932v16.903302h-69.913655c-1.100215 3.400664-2.10041 6.601289-3.000586 9.601875h63.012307v16.203165h-69.213519c-1.700332 3.400664-3.400664 6.801328-4.900957 10.001953h87.617113v16.903302h-42.708342c11.102168 11.102168 27.105294 19.903887 48.109397 26.505176l-8.501661 17.903497c-15.403008-6.201211-28.205509-13.302598-38.70756-21.604219v63.012307h-19.903887v-70.713812h10.902129c-5.100996-4.900957-9.401836-9.801914-12.8025-15.00293H402.078531c-4.100801 5.601094-8.60168 10.70209-13.302598 15.202969h14.102754v14.902911c-0.800156 15.00293-4.900957 27.105294-12.402422 36.107052-7.101387 8.50166-19.003712 14.902911-35.206876 19.40379l-10.702091-16.703262c14.902911-3.800742 24.804845-8.60168 30.10588-14.502833 4.900957-6.201211 7.701504-14.302794 8.301622-24.304747V872.170346c-12.002344 10.201993-25.90506 18.003516-41.708146 23.304551L330.764602 878.171518c18.603634-5.601094 34.006642-14.502833 46.209026-26.505177h-41.408088v-16.903301h54.910725c2.300449-3.400664 4.100801-6.601289 5.801133-10.001954h-46.609103v-16.203165h53.61047c1.100215-3.200625 2.10041-6.40125 3.000586-9.601875h-66.61301v-16.903301h41.108029zM584.414143 910.177769c0 3.900762 2.10041 6.001172 6.60129 6.001172h60.911897c4.900957 0 8.60168-1.100215 11.102168-3.000586 2.800547-2.300449 4.700918-8.50166 5.601094-19.003712l18.603633 6.001173c-1.900371 16.903301-5.501074 26.905255-10.302012 30.10588-4.700918 3.000586-11.802305 4.500879-21.204141 4.500879h-70.713811c-13.702676 0-20.504005-7.001367-20.504005-20.504005v-34.006642c-11.502247 5.301035-23.904669 10.502051-37.207267 16.003126l-8.301622-18.203556c28.605587-7.901543 55.510842-19.903887 80.715765-36.107052h-77.815198v-19.003711h63.412385v-19.40379h-49.309631v-18.803673h49.309631V763.149053h19.703849v21.604219h43.808556V801.156476c7.901543-8.301621 14.902911-16.903301 21.204141-25.80504l15.20297 11.302207c-9.601875 13.502637-19.703848 25.605001-30.505958 36.307092h36.50713v19.003711h-58.311389c-1.900371 1.500293-3.800742 2.800547-5.601094 4.100801-11.302207 7.901543-25.605001 16.003126-42.908381 24.604806v8.301621c33.106466-3.600703 62.612229-9.601875 88.21723-18.203555l6.801329 18.603633c-29.305724 8.301621-61.111936 14.102754-94.918539 17.30338V910.177769z m62.112132-106.620824h-41.508107v19.40379h20.704043c7.401446-6.50127 14.402813-12.90252 20.804064-19.40379z" fill="#FFFFFF" /><path d="M640.525103 478.493456c-6.901348 0-13.802696 1.400273-20.103927 4.100801-0.500098-0.500098-0.700137-1.000195-1.200234-1.400274l-128.025005-127.224848c-8.50166-8.401641-20.804063-11.602266-32.30631-8.301622l-0.200039-0.200039c-0.200039 0.200039-0.700137 0.200039-1.000196 0.500098-4.30084 1.300254-8.301621 3.500684-11.702285 6.50127-78.615355 47.209221-132.525884 161.031451-132.525884 255.249853 0 13.202579-1.900371 19.40379 0 32.106271h246.448134V515.400664l12.202384 12.202383c2.000391 2.000391 4.30084 3.800742 6.701308 5.301036 1.300254 13.00254 12.90252 22.504395 25.90506 21.204141 10.302012-1.000195 18.803673-8.7017 20.904083-18.803672h0.500098v-4.800938c-0.200039-7.801524 6.001172-14.302794 13.802695-14.502833 7.801524-0.200039 14.302794 6.001172 14.502833 13.802696V639.724946h37.907404v-109.021293c0.400078-28.305528-22.204337-51.61008-50.509865-52.010158-0.600117-0.200039-1.000195-0.200039-1.300254-0.200039z m70.413752-232.745458c-1.900371-7.401446-25.605001-17.30338-33.106466-15.302989l-4.500879 1.200234-22.504395-25.404962c-2.400469-2.600508-14.402813-14.902911-23.504591-20.103926-12.90252-7.401446-113.322133 13.902715-126.324673 33.806603-5.501074 8.60168-7.901543 18.703653-9.101778 23.50459l-7.901543 39.107639-4.500879 1.200234c-7.401446 1.900371-23.004493 22.304356-21.104122 29.705802 1.900371 7.401446 9.501856 11.902325 16.903302 9.901934 0.10002 0 0.200039-0.10002 0.400078-0.10002l30.205899-7.901543c7.501465 39.107638 41.708146 67.413167 81.515921 67.313147 45.808947 0 82.916195-36.907208 82.916195-82.416097 0-9.401836-1.600313-18.703653-4.800938-27.505372l35.506935-9.601875c7.601485-2.300449 12.102364-10.001954 9.901934-17.403399z m-62.712248-42.608322l2.600508 3.100605c0.900176 1.200234 0.500098 0.400078-2.600508-3.100605z" fill="#FFFFFF" /></svg>