<?xml version="1.0" standalone="no"?><!DOCTYPE svg PUBLIC "-//W3C//DTD SVG 1.1//EN" "http://www.w3.org/Graphics/SVG/1.1/DTD/svg11.dtd"><svg class="icon" width="32px" height="32.00px" viewBox="0 0 1024 1024" version="1.1" xmlns="http://www.w3.org/2000/svg"><path d="M512 1020.8a64 64 0 0 1-46.72-19.2l-37.76-37.76a483.84 483.84 0 1 1 568.32-476.16 480.64 480.64 0 0 1-399.36 476.16l-37.76 37.76a64 64 0 0 1-46.72 19.2z" fill="#FFFFFF" /><path d="M512 67.2a419.84 419.84 0 0 0-64 832h10.24l52.48 52.48 55.04-52.48H576a419.84 419.84 0 0 0-64-832z" fill="#1761A3" /><path d="M506.24 277.12h11.52a64 64 0 0 1 13.44 128 64 64 0 0 1-69.76-104.96 69.76 69.76 0 0 1 44.8-23.04z m-64 155.52c17.92-19.2 46.08-10.88 68.48-12.16s50.56-6.4 68.48 12.8L661.12 512a64 64 0 0 1 16 21.76v5.12a23.04 23.04 0 0 1-36.48 16c-21.12-17.92-39.04-39.68-58.88-58.24v50.56H441.6v-50.56l-50.56 51.2a29.44 29.44 0 0 1-25.6 11.52 25.6 25.6 0 0 1-18.56-16v-8.32A64 64 0 0 1 362.24 512zM396.16 620.8c14.72-16 30.08-30.08 45.44-45.44l52.48 52.48-38.4 39.04 37.12 37.12a28.16 28.16 0 0 1 10.24 24.96 26.24 26.24 0 0 1-17.28 18.56h-10.88a122.24 122.24 0 0 1-30.72-27.52c-14.72-16-30.08-31.36-44.8-47.36a39.04 39.04 0 0 1-3.2-51.84z m131.84 7.04L581.12 576c14.72 14.72 30.08 28.8 44.16 44.16a38.4 38.4 0 0 1 0 48.64c-10.88 13.44-23.68 24.96-35.2 38.4a237.44 237.44 0 0 1-43.52 40.96h-9.6a23.68 23.68 0 0 1-13.44-35.84c12.8-16 28.8-29.44 43.52-44.8z" fill="#FFFFFF" /></svg>