<?xml version="1.0" standalone="no"?><!DOCTYPE svg PUBLIC "-//W3C//DTD SVG 1.1//EN" "http://www.w3.org/Graphics/SVG/1.1/DTD/svg11.dtd"><svg class="icon" width="32px" height="32.00px" viewBox="0 0 1024 1024" version="1.1" xmlns="http://www.w3.org/2000/svg"><path d="M512 1020.8a64 64 0 0 1-46.72-19.2l-37.76-37.76a483.84 483.84 0 1 1 568.32-476.16 480.64 480.64 0 0 1-399.36 476.16l-37.76 37.76a64 64 0 0 1-46.72 19.2z" fill="#FFFFFF" /><path d="M512 67.2a419.84 419.84 0 0 0-64 832h10.24l52.48 52.48 55.04-52.48H576a419.84 419.84 0 0 0-64-832z" fill="#1761A3" /><path d="M394.88 439.68a360.32 360.32 0 0 0 44.8-3.2 17.28 17.28 0 0 1 16.64 0 39.68 39.68 0 0 1 12.8 15.36q3.2 7.68-5.76 20.48A128 128 0 0 0 448 512a19.84 19.84 0 0 1 0 5.12c0 3.84 0 8.96-10.24 15.36a128 128 0 0 1-36.48 20.48 267.52 267.52 0 0 1-38.4 9.6v83.84q0 28.8-7.68 30.08t-12.8-24.96q0-12.16-4.48-35.84T327.68 576v-7.68h-37.76a69.76 69.76 0 0 1-26.88-8.96 71.68 71.68 0 0 1-17.28-12.8 85.76 85.76 0 0 1-15.36-20.48 187.52 187.52 0 0 1-11.52-50.56 170.24 170.24 0 0 0-10.24-35.84 40.96 40.96 0 0 1 0-18.56 33.92 33.92 0 0 1 6.4-17.92 28.16 28.16 0 0 1 11.52-10.24 40.96 40.96 0 0 1 19.2 0 47.36 47.36 0 0 1 16 5.76 42.24 42.24 0 0 1 17.28 12.16 58.88 58.88 0 0 0 22.4 12.8l24.96 6.4v-28.8-38.4a20.48 20.48 0 0 1 7.04-17.92 24.96 24.96 0 0 1 16.64 0 26.24 26.24 0 0 1 20.48 21.12 72.96 72.96 0 0 0 2.56 17.92 18.56 18.56 0 0 1 0 16 74.24 74.24 0 0 0-6.4 16v21.12zM325.76 535.04v-39.68-22.4h-13.44a108.16 108.16 0 0 1-21.12-3.84h-10.88v28.8a112 112 0 0 0 0 30.72 17.92 17.92 0 0 0 8.96 11.52A71.68 71.68 0 0 0 320 539.52h4.48z m35.84-39.04a323.84 323.84 0 0 0 0 39.04h12.16a185.6 185.6 0 0 0 42.88-16 76.16 76.16 0 0 1 0-16.64v-16.64a11.52 11.52 0 0 0 0-8.32h-8.32a132.48 132.48 0 0 1-24.96 0h-21.76q1.28 6.4 0 18.56zM758.4 481.92a852.48 852.48 0 0 1-93.44 12.16h-76.8a42.88 42.88 0 0 1 0 5.12v9.6a73.6 73.6 0 0 1 0 10.24 17.92 17.92 0 0 1-12.16 17.92 33.28 33.28 0 0 1-12.16 0h-11.52a19.2 19.2 0 0 1-12.8-7.68 35.84 35.84 0 0 1-8.96-17.28 12.8 12.8 0 0 0 0-6.4v-7.68a34.56 34.56 0 0 0-6.4-14.08 20.48 20.48 0 0 1-3.84-11.52v-9.6a26.24 26.24 0 0 1 7.04-10.88 21.76 21.76 0 0 1 8.96-3.84h8.96a51.2 51.2 0 0 1 33.92 0h14.08a20.48 20.48 0 0 1-6.4-5.12l-4.48-3.2a52.48 52.48 0 0 1-10.24-11.52l-8.32-12.8v-3.84a34.56 34.56 0 0 1 0-16c0-4.48 3.84-7.68 11.52-8.96h14.08a11.52 11.52 0 0 0 8.32 0 15.36 15.36 0 0 1 12.8 8.96 17.92 17.92 0 0 1 0 5.76 40.96 40.96 0 0 0 0 6.4v9.6a80 80 0 0 0 0 14.72q7.68 16 0 21.76h84.48a44.8 44.8 0 0 1 6.4-14.08l4.48-10.24 3.84-7.04 3.2-7.04a54.4 54.4 0 0 1 5.76-9.6l7.68-13.44a94.72 94.72 0 0 1 10.24-15.36l5.12-6.4a69.76 69.76 0 0 1 11.52-14.72 48.64 48.64 0 0 1 12.8-6.4 18.56 18.56 0 0 1 8.32 0s5.76 3.84 8.32 8.32a12.16 12.16 0 0 1 0 10.88 12.8 12.8 0 0 1-6.4 6.4 14.08 14.08 0 0 0-6.4 3.2l-5.12 5.76a19.2 19.2 0 0 0-5.76 5.12l-4.48 4.48-5.76 6.4-8.32 10.24-6.4 8.96-5.12 8.32-4.48 6.4-3.84 5.76-10.24 16A576 576 0 0 0 785.92 448a51.84 51.84 0 0 1 24.96 4.48c4.48 0 7.04 8.96 7.04 19.2a38.4 38.4 0 0 1-12.8 25.6l-31.36 21.12q-10.24 8.96-14.08 5.12a8.96 8.96 0 0 1 0-10.24 161.92 161.92 0 0 1 8.32-26.24 8.96 8.96 0 0 0 0-5.12 21.76 21.76 0 0 0-9.6 0z m-128 100.48a87.04 87.04 0 0 0 30.72 7.68h22.4v-5.12a29.44 29.44 0 0 1-5.12-12.8 24.96 24.96 0 0 1 5.76-11.52l13.44-19.84a18.56 18.56 0 0 0 0-5.76h-6.4a119.04 119.04 0 0 1-21.76 9.6 44.16 44.16 0 0 1-16.64 0h-19.2a35.2 35.2 0 0 1-25.6-13.44 25.6 25.6 0 0 1-6.4-15.36 18.56 18.56 0 0 1 4.48-10.88 24.32 24.32 0 0 1 14.72-5.76 97.28 97.28 0 0 1 22.4 0 122.88 122.88 0 0 0 48 0l20.48-4.48a30.08 30.08 0 0 1 17.28 0 17.28 17.28 0 0 1 8.96 9.6 56.96 56.96 0 0 1 0 16 154.24 154.24 0 0 1-24.32 40.32 21.12 21.12 0 0 0-5.76 15.36v7.04h13.44a37.12 37.12 0 0 0 13.44 0h10.88a15.36 15.36 0 0 0 8.32 0H768c8.32 0 12.8 0 14.08 3.2s0 7.04-8.32 10.24a113.92 113.92 0 0 1-21.76 7.68 41.6 41.6 0 0 1-13.44 0 37.76 37.76 0 0 0-12.8 0h-12.16v12.16a64 64 0 0 1-5.76 25.6 64 64 0 0 1-12.16 16.64 21.76 21.76 0 0 1-14.72 7.04 32.64 32.64 0 0 1-21.12-16 54.4 54.4 0 0 1-7.04-9.6c0-8.96 0-13.44 5.12-14.08s5.76 0 8.32 8.96 8.96 18.56 16 20.48 0 0 3.2-3.2v-8.32a133.76 133.76 0 0 0 0-16.64 26.88 26.88 0 0 0 0-4.48h-40.32a22.4 22.4 0 0 1-12.16 0 68.48 68.48 0 0 0-17.28 0 80 80 0 0 1-29.44-5.76c-6.4 0-10.24-5.12-10.24-7.68a25.6 25.6 0 0 1 0-9.6 22.4 22.4 0 0 1 11.52-12.8 69.76 69.76 0 0 1 21.12-7.04 31.36 31.36 0 0 1 19.2 2.56zM640 384a26.24 26.24 0 0 1 7.68-10.88 10.24 10.24 0 0 1 10.88 0l16.64 8.32a24.32 24.32 0 0 1 13.44 14.08v11.52a40.32 40.32 0 0 1 0 14.72c0 6.4-3.2 10.24-5.76 11.52a12.8 12.8 0 0 1-12.8 0l-5.76-3.84a32.64 32.64 0 0 1-8.96-6.4l-3.2-6.4-12.16-14.72a24.32 24.32 0 0 1 0-8.96V384z" fill="#F7F8F8" /></svg>